# xmcd
#
# Track frame offsets: 
#        150
#        17792
#        31606
#        43559
#        55851
#        75970
#        89582
#        102804
#        113970
#        125531
#        139964
#        155152
#        165319
#        187209
#        200195
#        212806
#        244198
#
# Disc length: 3489 seconds
#
# Revision: 0
# Processed by: cddbd v1.5.2PL0 Copyright (c) Steve Scherf et al.
# Submitted via: ExactAudioCopyFreeDBPlugin 1.0
#
DISCID=ec0d9f11
DTITLE=Various Artist - MOTOWN 50 THE BEST OF MOTOWN DISC 2
DYEAR=2008
DGENRE=R&B
TTITLE0=Stevie Wonder - Sir Duke
TTITLE1=Diana Ross and Marvin Gaye - You Are Everything
TTITLE2=The Temptations - Get Ready
TTITLE3=Martha Reeves and The Vandellas - Heatwave
TTITLE4=Lionel Richie and Diana Ross - Endless Love
TTITLE5=Smokey Robinson and The Miracles - The Tears Of A Clown
TTITLE6=Smokey Robinson and The Miracles - The Tracks Of My Tears
TTITLE7=Marvin Gaye and Tammi Terrell - Ain't No Mountain High Enough
TTITLE8=Mchael Jackson - Rockin Robin
TTITLE9=Smokey Robinson and The Miracles - You've Really Got A Hold On M
TTITLE9=e
TTITLE10=Edwin Starr - War
TTITLE11=Marvin Gaye and Tammi Terrell - Ain't Nothing Like The Real Thi
TTITLE11=ng
TTITLE12=Commodores - Easy
TTITLE13=The Isley Brothers - This Old Heart Of Mine (Is Weak For You)
TTITLE14=Stevie Wonder - For Once In My Life
TTITLE15=The Temptations - Papa Was A Rollin' Ston
TTITLE16=Rockwell - Somebody's Watching Me
EXTD=
EXTT0=
EXTT1=
EXTT2=
EXTT3=
EXTT4=
EXTT5=
EXTT6=
EXTT7=
EXTT8=
EXTT9=
EXTT10=
EXTT11=
EXTT12=
EXTT13=
EXTT14=
EXTT15=
EXTT16=
PLAYORDER=
